# xmcd
# 
# Track frame offsets:
#     150
#     11955
#     24022
#     37067
#     52427
#     66235
#     78315
#     91620
#     100727
#     114245
#     127387
#     141650
#     151782
#     164047
# 
# Disc length: 2330
# 
# Revision: 8
# Processed by: cddbd v1.5.2PL0 Copyright (c) Steve Scherf et al.
# Submitted via: fre:ac v1.0.17
# 
DISCID=c109180e
DTITLE=Various Artist - Blues History CD3
DYEAR=1989
DGENRE=Blues
TTITLE0=Etta James - I'd Rather Go Blind
TTITLE1=Memphis Slim - Mother Earth
TTITLE2=Howlin' Wolf - I Asked For Water 
TTITLE3=Muddy Waters - Honey Bee
TTITLE4=Lowell Fulson - Loving You
TTITLE5=Big Bill Broonzy and Washboard Sam - Diggin' My Potatoes
TTITLE6=John Lee Hooker - Down At The Landing
TTITLE7=Sonny Boy Williamson - One Way Out 
TTITLE8=Little Milton - Who's Cheating Who?
TTITLE9=Muddy Waters - Mannish Boy 
TTITLE10=Buddy Guy - Broken Hearted Blues
TTITLE11=Otis Rush - I Can't Stop Baby
TTITLE12=Little Walter - My Babe
TTITLE13=Elmore James - Madison Blues
EXTD=
EXTT0=
EXTT1=
EXTT2=
EXTT3=
EXTT4=
EXTT5=
EXTT6=
EXTT7=
EXTT8=
EXTT9=
EXTT10=
EXTT11=
EXTT12=
EXTT13=
PLAYORDER=
